# xmcd
#
# Track frame offsets:
#	150
#	17257
#	28777
#	48022
#	65297
#	85422
#	103617
#	120587
#	135585
#	155885
#	168005
#	187462
#	206270
#	225817
#	247317
#	265340
#	286622
#
# Disc length: 4072 seconds
#
# Revision: 1
# Processed by: cddbd v1.5.1PL0 Copyright (c) Steve Scherf et al.
# Submitted via: CDex 1.50Beta5
#
DISCID=de0fe611
DTITLE=クレイグ・デイヴィッド - ASPHALT#02
DYEAR=2003
DGENRE=Rock
TTITLE0=クレイグ・デイヴィッド/ランデヴー〔ブラックスミス R&B リラブ〕
TTITLE1=SUIKEN/APOLO
TTITLE2=michico/bounce baby
TTITLE3=MACKA-CHIN/Maririn Cafe 日本語版
TTITLE4=ジョン・フォルテ/トラブル・アゲイン
TTITLE5=ラッパ我リヤ/プロフェッショナル現場アクター(MIGHTY CROWN TRITOP REMIX)
TTITLE6=SOULHEAD/TOO LATE
TTITLE7=T.O.K./ギミ・ダ・ミュージック
TTITLE8=ミスティーク/ゼイル・ネヴァー・ノウ(カウタシー・オブ・ソリッド・クルー)
TTITLE9=餓鬼レンジャー/ラップ王子さん
TTITLE10=ノーティ・バイ・ネイチャー/ラー・ラー
TTITLE11=マイカデリック/52年度通信カーリング部同窓会
TTITLE12=ターシャ/DOUBLE TROUBLE
TTITLE13=イン・ヤン・ツインズ/バイ・マイセルフ
TTITLE14=ウー・タン・プロダクションズ・プレゼンツ・キラー・ビーズ/キラー・ビーズ
TTITLE15=m-flo/DISPATCH
TTITLE16=リッチー・スティーヴンス/パーティー・トゥ・ジ・エンド・オブ・タイム
EXTD=
EXTT0=
EXTT1=
EXTT2=
EXTT3=
EXTT4=
EXTT5=
EXTT6=
EXTT7=
EXTT8=
EXTT9=
EXTT10=
EXTT11=
EXTT12=
EXTT13=
EXTT14=
EXTT15=
EXTT16=
PLAYORDER=
